REM DIRINDEX 1\2\4,1\2\5,1\2\6,1\3\7,1\3\8,1\3\9,1\3\10
REM DIRNAME cjc057,folder01,folder02,folder03,folder04,folder05,folder06,folder07,folder08,folder09
TITLE ""
FILE "b_200.mp3" MP3
  TRACK 01 AUDIO
    TITLE "0:"
    INDEX 01 00:00:00
  TRACK 02 AUDIO
    TITLE "7:cjc057_10153"
    INDEX 01 00:00:15
  TRACK 03 AUDIO
    TITLE "0:"
    INDEX 01 00:01:22
  TRACK 04 AUDIO
    TITLE "8:cjc057_10154"
    INDEX 01 00:01:56
  TRACK 05 AUDIO
    TITLE "0:"
    INDEX 01 00:03:17
  TRACK 06 AUDIO
    TITLE "9:cjc057_10155"
    INDEX 01 00:03:61
  TRACK 07 AUDIO
    TITLE "0:"
    INDEX 01 00:07:00
  TRACK 08 AUDIO
    TITLE "7:cjc057_10156"
    INDEX 01 00:08:09
  TRACK 09 AUDIO
    TITLE "0:"
    INDEX 01 00:09:26
  TRACK 10 AUDIO
    TITLE "8:cjc057_10157"
    INDEX 01 00:09:59
  TRACK 11 AUDIO
    TITLE "0:"
    INDEX 01 00:11:03
  TRACK 12 AUDIO
    TITLE "9:cjc057_10158"
    INDEX 01 00:11:46
  TRACK 13 AUDIO
    TITLE "0:"
    INDEX 01 00:16:20
  TRACK 14 AUDIO
    TITLE "7:cjc057_10159"
    INDEX 01 00:17:27
  TRACK 15 AUDIO
    TITLE "0:"
    INDEX 01 00:18:41
  TRACK 16 AUDIO
    TITLE "8:cjc057_10160"
    INDEX 01 00:18:72
  TRACK 17 AUDIO
    TITLE "0:"
    INDEX 01 00:20:59
  TRACK 18 AUDIO
    TITLE "9:cjc057_10161"
    INDEX 01 00:21:29
  TRACK 19 AUDIO
    TITLE "0:"
    INDEX 01 00:24:10
  TRACK 20 AUDIO
    TITLE "7:cjc057_10162"
    INDEX 01 00:25:17
  TRACK 21 AUDIO
    TITLE "0:"
    INDEX 01 00:26:30
  TRACK 22 AUDIO
    TITLE "8:cjc057_10163"
    INDEX 01 00:26:62
  TRACK 23 AUDIO
    TITLE "0:"
    INDEX 01 00:29:25
  TRACK 24 AUDIO
    TITLE "9:cjc057_10164"
    INDEX 01 00:29:64
  TRACK 25 AUDIO
    TITLE "0:"
    INDEX 01 00:34:34
  TRACK 26 AUDIO
    TITLE "7:cjc057_10165"
    INDEX 01 00:35:41
  TRACK 27 AUDIO
    TITLE "0:"
    INDEX 01 00:36:68
  TRACK 28 AUDIO
    TITLE "8:cjc057_10166"
    INDEX 01 00:37:24
  TRACK 29 AUDIO
    TITLE "0:"
    INDEX 01 00:38:59
  TRACK 30 AUDIO
    TITLE "9:cjc057_10167"
    INDEX 01 00:39:27
  TRACK 31 AUDIO
    TITLE "0:"
    INDEX 01 00:43:37
  TRACK 32 AUDIO
    TITLE "7:cjc057_10168"
    INDEX 01 00:44:44
  TRACK 33 AUDIO
    TITLE "0:"
    INDEX 01 00:45:57
  TRACK 34 AUDIO
    TITLE "8:cjc057_10169"
    INDEX 01 00:46:13
  TRACK 35 AUDIO
    TITLE "0:"
    INDEX 01 00:47:15
  TRACK 36 AUDIO
    TITLE "9:cjc057_10170"
    INDEX 01 00:47:58
  TRACK 37 AUDIO
    TITLE "0:"
    INDEX 01 00:51:63
  TRACK 38 AUDIO
    TITLE "7:cjc057_10171"
    INDEX 01 00:52:71
  TRACK 39 AUDIO
    TITLE "0:"
    INDEX 01 00:54:21
  TRACK 40 AUDIO
    TITLE "8:cjc057_10172"
    INDEX 01 00:54:54
  TRACK 41 AUDIO
    TITLE "0:"
    INDEX 01 00:56:25
  TRACK 42 AUDIO
    TITLE "9:cjc057_10173"
    INDEX 01 00:56:69
  TRACK 43 AUDIO
    TITLE "0:"
    INDEX 01 00:59:71
  TRACK 44 AUDIO
    TITLE "7:cjc057_10174"
    INDEX 01 01:01:05
  TRACK 45 AUDIO
    TITLE "0:"
    INDEX 01 01:02:34
  TRACK 46 AUDIO
    TITLE "8:cjc057_10175"
    INDEX 01 01:02:63
  TRACK 47 AUDIO
    TITLE "0:"
    INDEX 01 01:04:21
  TRACK 48 AUDIO
    TITLE "9:cjc057_10176"
    INDEX 01 01:04:66
  TRACK 49 AUDIO
    TITLE "0:"
    INDEX 01 01:09:56
  TRACK 50 AUDIO
    TITLE "7:cjc057_10177"
    INDEX 01 01:10:61
  TRACK 51 AUDIO
    TITLE "0:"
    INDEX 01 01:11:70
  TRACK 52 AUDIO
    TITLE "8:cjc057_10178"
    INDEX 01 01:12:28
  TRACK 53 AUDIO
    TITLE "0:"
    INDEX 01 01:14:33
  TRACK 54 AUDIO
    TITLE "9:cjc057_10179"
    INDEX 01 01:15:05
  TRACK 55 AUDIO
    TITLE "0:"
    INDEX 01 01:18:07
  TRACK 56 AUDIO
    TITLE "7:cjc057_10180"
    INDEX 01 01:19:15
  TRACK 57 AUDIO
    TITLE "0:"
    INDEX 01 01:20:57
  TRACK 58 AUDIO
    TITLE "8:cjc057_10181"
    INDEX 01 01:21:16
  TRACK 59 AUDIO
    TITLE "0:"
    INDEX 01 01:23:67
  TRACK 60 AUDIO
    TITLE "9:cjc057_10182"
    INDEX 01 01:24:37
  TRACK 61 AUDIO
    TITLE "0:"
    INDEX 01 01:28:41
  TRACK 62 AUDIO
    TITLE "7:cjc057_10183"
    INDEX 01 01:29:48
  TRACK 63 AUDIO
    TITLE "0:"
    INDEX 01 01:31:12
  TRACK 64 AUDIO
    TITLE "8:cjc057_10184"
    INDEX 01 01:31:41
  TRACK 65 AUDIO
    TITLE "0:"
    INDEX 01 01:33:13
  TRACK 66 AUDIO
    TITLE "9:cjc057_10185"
    INDEX 01 01:33:54
  TRACK 67 AUDIO
    TITLE "0:"
    INDEX 01 01:37:52
  TRACK 68 AUDIO
    TITLE "7:cjc057_10186"
    INDEX 01 01:38:61
  TRACK 69 AUDIO
    TITLE "0:"
    INDEX 01 01:40:01
  TRACK 70 AUDIO
    TITLE "8:cjc057_10187"
    INDEX 01 01:40:31
  TRACK 71 AUDIO
    TITLE "0:"
    INDEX 01 01:41:48
  TRACK 72 AUDIO
    TITLE "9:cjc057_10188"
    INDEX 01 01:42:16
  TRACK 73 AUDIO
    TITLE "0:"
    INDEX 01 01:45:30
  TRACK 74 AUDIO
    TITLE "7:cjc057_10189"
    INDEX 01 01:46:37
  TRACK 75 AUDIO
    TITLE "0:"
    INDEX 01 01:48:05
  TRACK 76 AUDIO
    TITLE "8:cjc057_10190"
    INDEX 01 01:48:38
  TRACK 77 AUDIO
    TITLE "0:"
    INDEX 01 01:50:70
  TRACK 78 AUDIO
    TITLE "9:cjc057_10191"
    INDEX 01 01:51:40
  TRACK 79 AUDIO
    TITLE "0:"
    INDEX 01 01:55:44
  TRACK 80 AUDIO
    TITLE "7:cjc057_10192"
    INDEX 01 01:56:47
  TRACK 81 AUDIO
    TITLE "0:"
    INDEX 01 01:57:64
  TRACK 82 AUDIO
    TITLE "8:cjc057_10193"
    INDEX 01 01:58:21
  TRACK 83 AUDIO
    TITLE "0:"
    INDEX 01 02:01:03
  TRACK 84 AUDIO
    TITLE "9:cjc057_10194"
    INDEX 01 02:01:48
  TRACK 85 AUDIO
    TITLE "0:"
    INDEX 01 02:05:15
  TRACK 86 AUDIO
    TITLE "7:cjc057_10195"
    INDEX 01 02:06:20
  TRACK 87 AUDIO
    TITLE "0:"
    INDEX 01 02:07:47
  TRACK 88 AUDIO
    TITLE "8:cjc057_10196"
    INDEX 01 02:08:05
  TRACK 89 AUDIO
    TITLE "0:"
    INDEX 01 02:09:40
  TRACK 90 AUDIO
    TITLE "9:cjc057_10197"
    INDEX 01 02:10:10
  TRACK 91 AUDIO
    TITLE "0:"
    INDEX 01 02:13:36
  TRACK 92 AUDIO
    TITLE "7:cjc057_10198"
    INDEX 01 02:14:41
  TRACK 93 AUDIO
    TITLE "0:"
    INDEX 01 02:15:58
  TRACK 94 AUDIO
    TITLE "8:cjc057_10199"
    INDEX 01 02:16:15
  TRACK 95 AUDIO
    TITLE "0:"
    INDEX 01 02:19:13
  TRACK 96 AUDIO
    TITLE "9:cjc057_10200"
    INDEX 01 02:19:60
  TRACK 97 AUDIO
    TITLE "0:"
    INDEX 01 02:23:01
  TRACK 98 AUDIO
    TITLE "7:cjc057_10201"
    INDEX 01 02:24:10
  TRACK 99 AUDIO
    TITLE "0:"
    INDEX 01 02:25:37
  TRACK 100 AUDIO
    TITLE "8:cjc057_10202"
    INDEX 01 02:25:67
  TRACK 101 AUDIO
    TITLE "0:"
    INDEX 01 02:28:69
  TRACK 102 AUDIO
    TITLE "9:cjc057_10203"
    INDEX 01 02:29:35
  TRACK 103 AUDIO
    TITLE "0:"
    INDEX 01 02:33:66
